<?xml version="1.0" encoding="UTF-8" ?>
<!DOCTYPE svg PUBLIC "-//W3C//DTD SVG 1.1//EN" "http://www.w3.org/Graphics/SVG/1.1/DTD/svg11.dtd">
<svg width="500pt" height="92pt" viewBox="0 0 500 92" version="1.1" xmlns="http://www.w3.org/2000/svg">
<g id="f000000ff">
<path fill="#000000" opacity="1.00" d=" M 43.57 0.00 L 50.13 0.00 C 67.44 1.79 83.33 13.44 89.38 29.88 C 93.70 18.71 102.36 9.25 113.31 4.30 C 117.94 2.07 123.00 1.05 127.99 0.00 L 135.45 0.00 C 153.80 1.27 170.72 14.09 176.33 31.71 C 176.43 21.90 176.31 12.10 176.38 2.29 C 182.25 2.31 188.12 2.27 193.98 2.33 C 206.00 18.81 217.91 35.38 230.11 51.73 C 229.88 41.87 230.18 32.01 230.08 22.15 C 225.54 22.07 221.00 22.11 216.47 22.08 C 216.42 15.48 216.43 8.88 216.46 2.28 C 227.91 2.31 239.36 2.31 250.82 2.28 C 250.84 31.47 250.83 60.66 250.82 89.84 C 244.98 89.82 239.14 89.83 233.30 89.84 C 221.22 73.54 209.59 56.88 197.27 40.78 C 197.12 57.13 197.25 73.49 197.20 89.84 C 190.28 89.84 183.35 89.77 176.43 89.89 C 176.25 80.12 176.45 70.35 176.33 60.58 C 170.67 77.77 154.35 90.54 136.32 92.00 L 129.65 92.00 C 111.87 91.04 95.59 78.85 89.34 62.24 C 83.30 78.81 67.06 90.84 49.48 92.00 L 43.58 92.00 C 24.61 91.13 7.14 77.31 2.06 59.00 C -3.01 43.04 2.13 24.69 14.09 13.13 C 21.95 5.41 32.63 0.91 43.57 0.00 M 33.62 25.60 C 26.65 29.84 22.09 37.82 22.19 46.00 C 22.09 52.52 24.92 58.95 29.60 63.45 C 36.08 69.71 46.18 71.89 54.61 68.61 C 60.39 66.57 64.89 62.04 67.96 56.85 C 74.55 57.32 81.15 56.84 87.75 57.11 C 86.14 49.88 86.14 42.37 87.71 35.13 C 81.09 35.25 74.46 35.15 67.83 35.20 C 65.77 31.73 63.19 28.48 59.80 26.21 C 52.20 20.91 41.46 20.66 33.62 25.60 M 126.55 22.79 C 116.22 25.30 108.35 35.32 108.47 45.97 C 108.30 55.90 115.01 65.41 124.37 68.68 C 133.94 72.35 145.58 68.87 151.66 60.66 C 156.97 53.93 158.11 44.29 154.63 36.47 C 150.21 25.87 137.64 19.72 126.55 22.79 Z" />
<path fill="#000000" opacity="1.00" d=" M 401.86 0.00 L 409.26 0.00 C 422.03 1.33 434.40 7.57 442.22 17.88 C 445.50 21.93 447.73 26.68 449.61 31.50 C 449.73 21.76 449.59 12.02 449.67 2.28 C 456.64 2.38 463.61 2.15 470.58 2.42 C 470.40 24.99 470.55 47.57 470.51 70.14 C 480.34 70.17 490.17 70.13 500.00 70.16 L 500.00 89.81 C 483.22 89.87 466.45 89.78 449.67 89.86 C 449.57 80.13 449.77 70.39 449.58 60.66 C 443.81 78.16 426.91 91.18 408.46 92.00 L 401.28 92.00 C 390.87 90.61 380.76 86.20 373.36 78.63 C 364.32 69.86 359.58 57.24 359.69 44.71 C 356.60 52.27 350.35 58.14 342.95 61.42 C 350.04 70.90 357.17 80.34 364.26 89.82 C 355.53 89.89 346.79 89.71 338.06 89.92 C 330.97 80.00 324.25 69.82 317.22 59.86 C 317.17 69.85 317.23 79.84 317.19 89.83 C 310.23 89.84 303.27 89.81 296.31 89.85 C 296.29 60.66 296.29 31.47 296.31 2.28 C 308.51 2.36 320.71 2.22 332.90 2.34 C 348.30 2.68 361.87 16.33 361.98 31.76 C 363.70 27.18 365.83 22.72 368.77 18.80 C 376.47 8.11 388.91 1.61 401.86 0.00 M 317.20 22.09 C 317.23 30.09 317.15 38.09 317.24 46.09 C 323.51 45.68 330.93 47.69 336.07 43.03 C 341.44 38.56 341.37 29.53 336.04 25.06 C 330.90 20.39 323.46 22.54 317.20 22.09 M 400.43 22.64 C 391.99 24.53 384.85 31.32 382.64 39.70 C 380.25 47.87 382.79 57.20 388.91 63.10 C 395.05 69.38 404.79 71.75 413.13 68.99 C 424.83 65.56 432.32 52.38 429.29 40.56 C 426.62 28.01 412.88 19.47 400.43 22.64 Z" />
<path fill="#000000" opacity="1.00" d=" M 254.17 2.28 C 267.15 2.33 280.13 2.25 293.12 2.33 C 293.14 8.86 293.12 15.39 293.13 21.93 C 287.05 21.92 280.98 22.15 274.91 22.14 C 275.01 44.71 275.20 67.28 274.88 89.85 C 267.98 89.82 261.07 89.82 254.17 89.84 C 254.14 60.66 254.13 31.47 254.17 2.28 Z" />
</g>
</svg>
